Coordinates
version=1
nRows=16
nColumns=40
inDegrees=yes

Units are S.I. units (second, meters, Newtons, ...)
Angles are in degrees.

endheader
time	pelvis_tilt	pelvis_list	pelvis_rotation	pelvis_tx	pelvis_ty	pelvis_tz	hip_flexion_r	hip_adduction_r	hip_rotation_r	knee_angle_r	knee_angle_r_beta	ankle_angle_r	subtalar_angle_r	mtp_angle_r	hip_flexion_l	hip_adduction_l	hip_rotation_l	knee_angle_l	knee_angle_l_beta	ankle_angle_l	subtalar_angle_l	mtp_angle_l	lumbar_extension	lumbar_bending	lumbar_rotation	arm_flex_r	arm_add_r	arm_rot_r	elbow_flex_r	pro_sup_r	wrist_flex_r	wrist_dev_r	arm_flex_l	arm_add_l	arm_rot_l	elbow_flex_l	pro_sup_l	wrist_flex_l	wrist_dev_l
     41.23000000	     -0.05028515	     -5.80936868	     -2.87172361	      0.98712238	      0.91584791	      0.57888531	     12.62487173	      6.87322944	     -9.89564387	     30.34191297	     30.34191297	     18.57829462	     -6.47978250	     -0.02868000	     20.05860051	    -17.31075214	     -2.75331302	     66.78799079	     66.78799079	     16.16431188	    -19.58502681	     23.30379772	    -11.30886877	      8.63272476	      0.84206862	      4.86499159	    -16.48614651	    -26.42242693	     23.57696849	     47.11525783	      0.00000000	      0.00000000	     15.01911951	    -10.56806065	     -0.81046049	     38.48056575	     46.02742057	      0.00000000	      0.00000000
     41.24850000	      0.17066710	     -5.82215750	     -2.42140999	      0.98575765	      0.91443603	      0.58002649	     12.40804839	      6.88633611	    -10.16590606	     30.98133252	     30.98133252	     19.21230044	     -6.70411530	     -0.08167109	     21.14065417	    -17.72139810	     -3.05649798	     65.70517777	     65.70517777	     16.77588958	    -19.60272001	     23.23723494	    -11.43452145	      8.57088900	      0.72009282	      7.07135979	    -16.35361001	    -26.56879395	     24.32802315	     47.11515300	      0.00000000	      0.00000000	     12.36850009	     -9.99785950	     -0.33279026	     36.69092990	     45.93732052	      0.00000000	      0.00000000
     41.26700000	      0.39670882	     -5.83881191	     -1.95907570	      0.98435239	      0.91315343	      0.58109139	     12.11039431	      6.92020995	    -10.42948537	     31.49022823	     31.49022823	     19.81908198	     -6.90819473	     -0.10238866	     22.15851302	    -18.05940071	     -3.34106351	     64.37954624	     64.37954624	     17.41421313	    -19.61511322	     23.31835781	    -11.55575366	      8.51434780	      0.57695737	      9.42674856	    -16.21752718	    -26.62777058	     24.99823704	     47.11079196	      0.00000000	      0.00000000	      9.76333643	     -9.42278670	      0.30691989	     34.54370014	     45.82682862	      0.00000000	      0.00000000
     41.28550000	      0.58067161	     -5.83685230	     -1.51673307	      0.98283652	      0.91208803	      0.58204573	     11.78171628	      6.94806015	    -10.67636759	     31.83723399	     31.83723399	     20.37476487	     -7.07763054	     -0.07846962	     23.12788903	    -18.28145180	     -3.60926289	     62.78945559	     62.78945559	     17.97070027	    -19.61876115	     23.42504900	    -11.67192948	      8.42780120	      0.49408763	     11.83620931	    -16.07748673	    -26.61106404	     25.55452613	     47.10441519	      0.00000000	      0.00000000	      7.31751232	     -8.90048070	      1.05211089	     32.24735509	     45.70231415	      0.00000000	      0.00000000
     41.30400000	      0.73269620	     -5.79163871	     -1.11009215	      0.98125569	      0.91137967	      0.58282326	     11.39002182	      6.95154051	    -10.85509925	     31.98575274	     31.98575274	     20.85176792	     -7.22689373	     -0.06888057	     23.99944653	    -18.33866470	     -3.83490606	     60.91438759	     60.91438759	     18.42106120	    -19.61445539	     23.44972835	    -11.77924385	      8.29362498	      0.57538645	     14.16349338	    -15.95079371	    -26.52306313	     26.20648485	     47.08643338	      0.00000000	      0.00000000	      4.95433214	     -8.38005126	      1.72684916	     30.19795918	     45.58050355	      0.00000000	      0.00000000
     41.32250000	      0.80110900	     -5.71436703	     -0.70579871	      0.97957913	      0.91101924	      0.58331757	     10.96774168	      6.92894986	    -11.01641028	     31.87578486	     31.87578486	     21.21149096	     -7.32265593	     -0.03122198	     24.85520678	    -18.19496298	     -3.91072437	     58.80461688	     58.80461688	     18.73498873	    -19.60305380	     23.37901603	    -11.80315900	      8.12837354	      0.69166326	     16.46489290	    -15.81707136	    -26.36622194	     26.93611268	     47.05853125	      0.00000000	      0.00000000	      2.66525656	     -7.91275865	      2.37569730	     28.33239991	     45.45588036	      0.00000000	      0.00000000
     41.34100000	      0.79306161	     -5.61313829	     -0.29454855	      0.97774825	      0.91109720	      0.58348588	     10.52894681	      6.87490618	    -11.21386417	     31.54258892	     31.54258892	     21.45148638	     -7.36945448	      0.03872390	     25.68891127	    -17.85182894	     -3.79540716	     56.46653734	     56.46653734	     18.86469963	    -19.58511752	     23.17760336	    -11.76468441	      7.95765333	      0.79848348	     18.79844239	    -15.68682348	    -26.10133455	     27.74021555	     47.01818264	      0.00000000	      0.00000000	      0.47885292	     -7.53732215	      3.06808970	     26.67596865	     45.31872802	      0.00000000	      0.00000000
     41.35950000	      0.70173990	     -5.46520767	      0.08771839	      0.97580410	      0.91161863	      0.58335906	     10.05662064	      6.77792111	    -11.37370621	     30.94870534	     30.94870534	     21.57631634	     -7.33284639	      0.10185111	     26.46161990	    -17.29560355	     -3.51421664	     53.90491111	     53.90491111	     18.78026381	    -19.54702715	     22.82109866	    -11.67706485	      7.72794038	      1.00384406	     21.03747710	    -15.57937864	    -25.72136681	     28.72133426	     46.96014474	      0.00000000	      0.00000000	     -1.65351847	     -7.24711646	      3.71837408	     25.44594416	     45.17939211	      0.00000000	      0.00000000
     41.37800000	      0.41974840	     -5.25658978	      0.44644519	      0.97371023	      0.91232701	      0.58289215	      9.73431205	      6.60711327	    -11.50683214	     30.21108439	     30.21108439	     21.57678090	     -7.31804395	      0.20813512	     27.34883479	    -16.50953088	     -3.01162588	     51.25206516	     51.25206516	     18.64804255	    -19.49043410	     22.77790982	    -11.37848284	      7.45256250	      1.87982586	     22.84653837	    -15.93240539	    -25.55325988	     29.62139360	     46.92355015	      0.00000000	      0.00000000	     -3.45241945	     -6.96089327	      3.91738277	     24.78326557	     45.11407266	      0.00000000	      0.00000000
     41.39650000	      0.34563164	     -5.06951399	      0.88491912	      0.97170771	      0.91379757	      0.58205883	      8.92682935	      6.45120916	    -11.80282856	     28.97662537	     28.97662537	     21.22818155	     -7.12128014	     -0.47958032	     27.76622430	    -15.66091406	     -2.41448720	     48.26574211	     48.26574211	     17.60475171	    -19.40840284	     20.59948313	    -11.38749478	      7.22265749	      1.50045676	     24.61397998	    -15.96948629	    -20.58487494	     32.67687039	     46.41864129	      0.00000000	      0.00000000	     -6.26456093	     -7.72075630	      9.09903263	     25.63935934	     44.25464810	      0.00000000	      0.00000000
     41.41500000	     -0.07395308	     -4.82279595	      1.25421311	      0.96943009	      0.91503418	      0.58087852	      8.60699537	      6.21091421	    -11.97926616	     27.93945453	     27.93945453	     21.07319217	     -6.98951564	     -0.27086696	     28.56413791	    -14.59744812	     -1.54394461	     45.47079286	     45.47079286	     17.14535838	    -19.28272426	     20.73333154	    -10.96627611	      6.93946870	      2.31075160	     26.53741053	    -16.39029891	    -20.56713577	     33.73346053	     46.38893959	      0.00000000	      0.00000000	     -7.81510880	     -7.56600189	      9.18697427	     25.19614201	     44.21849675	      0.00000000	      0.00000000
     41.43350000	     -0.11866074	     -4.62967304	      1.69918952	      0.96746142	      0.91715035	      0.57955375	      7.54799670	      6.03467891	    -12.44160137	     26.31788084	     26.31788084	     20.82906266	     -6.31306177	     -0.14201726	     28.69897928	    -13.58035441	     -0.59592671	     42.46535302	     42.46535302	     16.31240467	    -19.07158082	     19.92537169	    -11.05755916	      6.69758273	      1.97518584	     28.86266693	    -15.76775272	    -20.27792734	     36.01081514	     46.29009191	      0.00000000	      0.00000000	     -9.84024647	     -7.61661675	      9.38602858	     24.91395831	     44.16083369	      0.00000000	      0.00000000
     41.45200000	     -0.47601612	     -4.42305895	      2.12772216	      0.96537635	      0.91859283	      0.57794942	      6.96318216	      5.77153512	    -12.99905635	     24.94039225	     24.94039225	     20.38526670	     -5.65698040	     -0.78065185	     29.03359939	    -12.61916072	      0.17612367	     39.40312864	     39.40312864	     14.18803925	    -18.81151891	     16.08857260	    -10.81857061	      6.44802895	      2.19670821	     30.05325860	    -15.97787190	    -18.56831943	     40.12674950	     46.02863927	      0.00000000	      0.00000000	    -12.05174567	     -7.91631531	      9.73439977	     26.76989126	     44.11295391	      0.00000000	      0.00000000
     41.47050000	     -0.71129164	     -4.30543910	      2.57078075	      0.96339763	      0.92025070	      0.57622073	      6.14394557	      5.68254752	    -13.41779683	     23.36830960	     23.36830960	     20.04856761	     -5.09503569	     -0.64362147	     29.26007715	    -11.71949354	      1.12581003	     36.71988480	     36.71988480	     13.26790217	    -18.29550699	     15.78910001	    -10.67541265	      6.29256170	      2.39086156	     32.16607442	    -16.03172894	    -18.01959764	     42.02697408	     45.93828933	      0.00000000	      0.00000000	    -13.35246206	     -7.94417875	      9.95241973	     26.56495536	     44.07872715	      0.00000000	      0.00000000
     41.48900000	     -1.01553496	     -4.17253598	      3.01061482	      0.96158349	      0.92144122	      0.57436348	      5.47355698	      5.49709861	    -14.09832540	     21.97838827	     21.97838827	     19.61836409	     -4.28977912	     -1.24624962	     29.36701896	    -10.94019158	      1.71419443	     33.98915256	     33.98915256	     11.39217131	    -17.64379897	     12.97946448	    -10.50370869	      6.09075385	      2.65446982	     33.29799187	    -16.50974121	    -15.95910280	     46.07379109	     45.68979721	      0.00000000	      0.00000000	    -14.96673010	     -8.29136097	     10.22577376	     27.81457881	     44.08547041	      0.00000000	      0.00000000
     41.50750000	     -1.31631391	     -4.11417102	      3.42422169	      0.95989890	      0.92247019	      0.57253125	      4.81352813	      5.47724744	    -14.46439995	     20.60940426	     20.60940426	     19.34761521	     -3.87293355	     -1.02364521	     29.50260922	    -10.30773373	      2.19740760	     31.71933608	     31.71933608	     10.64061623	    -16.49973384	     13.11678163	    -10.24395956	      5.94362877	      2.91132969	     35.35213637	    -16.57920017	    -15.70013213	     47.59625253	     45.63378773	      0.00000000	      0.00000000	    -15.85431182	     -8.37147252	     10.30571738	     27.65363292	     44.07319585	      0.00000000	      0.00000000
